<?xml version="1.0" encoding="UTF-8" standalone="no"?>
<!-- Generator: Adobe Illustrator 19.0.0, SVG Export Plug-In . SVG Version: 6.00 Build 0)  -->

<svg
   xmlns:dc="http://purl.org/dc/elements/1.1/"
   xmlns:cc="http://creativecommons.org/ns#"
   xmlns:rdf="http://www.w3.org/1999/02/22-rdf-syntax-ns#"
   xmlns:svg="http://www.w3.org/2000/svg"
   xmlns="http://www.w3.org/2000/svg"
   xmlns:sodipodi="http://sodipodi.sourceforge.net/DTD/sodipodi-0.dtd"
   xmlns:inkscape="http://www.inkscape.org/namespaces/inkscape"
   version="1.1"
   id="Layer_1"
   x="0px"
   y="0px"
   viewBox="0 0 512 512"
   style="enable-background:new 0 0 512 512;"
   xml:space="preserve"
   sodipodi:docname="thermometer.svg"
   inkscape:version="0.92.4 (unknown)"><metadata
   id="metadata49"><rdf:RDF><cc:Work
       rdf:about=""><dc:format>image/svg+xml</dc:format><dc:type
         rdf:resource="http://purl.org/dc/dcmitype/StillImage" /></cc:Work></rdf:RDF></metadata><defs
   id="defs47" /><sodipodi:namedview
   pagecolor="#ffffff"
   bordercolor="#666666"
   borderopacity="1"
   objecttolerance="10"
   gridtolerance="10"
   guidetolerance="10"
   inkscape:pageopacity="0"
   inkscape:pageshadow="2"
   inkscape:window-width="904"
   inkscape:window-height="480"
   id="namedview45"
   showgrid="false"
   inkscape:zoom="0.4609375"
   inkscape:cx="256"
   inkscape:cy="256"
   inkscape:window-x="0"
   inkscape:window-y="27"
   inkscape:window-maximized="0"
   inkscape:current-layer="Layer_1" />
<g
   id="g6"
   style="fill:#ff0000">
	<g
   id="g4"
   style="fill:#ff0000">
		<path
   d="M273.067,355.647V199.111h-34.133v156.535c-19.863,7.045-34.133,26.015-34.133,48.265c0,28.233,22.968,51.2,51.2,51.2    c28.233,0,51.2-22.967,51.2-51.2C307.2,381.662,292.931,362.692,273.067,355.647z M256,420.978    c-9.411,0-17.067-7.655-17.067-17.067c0-9.412,7.656-17.067,17.067-17.067c9.411,0,17.067,7.655,17.067,17.067    C273.067,413.323,265.411,420.978,256,420.978z"
   id="path2"
   style="fill:#ff0000" />
	</g>
</g>
<g
   id="g12">
	<g
   id="g10">
		<path
   d="M329.956,325.089V73.956C329.956,33.176,296.779,0,256,0s-73.956,33.176-73.956,73.956v251.15    c-21.791,20.411-34.133,48.685-34.133,78.806C147.911,463.511,196.4,512,256,512s108.089-48.489,108.089-108.089    C364.089,373.779,351.747,345.498,329.956,325.089z M256,477.867c-40.779,0-73.956-33.176-73.956-73.956    c0-22.539,10.113-43.577,27.745-57.717l6.389-5.123V73.956c0-21.958,17.864-39.822,39.822-39.822s39.822,17.864,39.822,39.822    v267.1l6.39,5.123c17.631,14.138,27.744,35.18,27.744,57.732C329.956,444.69,296.779,477.867,256,477.867z"
   id="path8" />
	</g>
</g>
<g
   id="g14">
</g>
<g
   id="g16">
</g>
<g
   id="g18">
</g>
<g
   id="g20">
</g>
<g
   id="g22">
</g>
<g
   id="g24">
</g>
<g
   id="g26">
</g>
<g
   id="g28">
</g>
<g
   id="g30">
</g>
<g
   id="g32">
</g>
<g
   id="g34">
</g>
<g
   id="g36">
</g>
<g
   id="g38">
</g>
<g
   id="g40">
</g>
<g
   id="g42">
</g>
</svg>